<svg width="28" height="28" viewBox="0 0 28 28" fill="none" xmlns="http://www.w3.org/2000/svg">
<rect y="-9.15527e-05" width="28" height="28" rx="14" fill="black"/>
<path fill-rule="evenodd" clip-rule="evenodd" d="M18.3298 27.3167C16.9662 27.7602 15.5109 27.9999 14 27.9999C12.4881 27.9999 11.0319 27.7598 9.66745 27.3158C10.2977 27.3913 10.5306 26.9809 10.5306 26.6266C10.5306 26.4724 10.528 26.2003 10.5245 25.8364C10.5204 25.4153 10.5151 24.8712 10.5114 24.2441C6.61674 25.0908 5.79512 22.366 5.79512 22.366C5.15899 20.7479 4.24112 20.3171 4.24112 20.3171C2.96974 19.4475 4.33737 19.4652 4.33737 19.4652C5.74174 19.5642 6.48112 20.909 6.48112 20.909C7.73062 23.0499 9.758 22.4318 10.556 22.0727C10.6829 21.1674 11.0451 20.5499 11.445 20.1998C8.33612 19.8461 5.06799 18.6447 5.06799 13.2764C5.06799 11.7466 5.61312 10.4964 6.50912 9.51655C6.36474 9.16202 5.88437 7.73824 6.64562 5.80925C6.64562 5.80925 7.82162 5.4327 10.4956 7.24525C11.613 6.93433 12.81 6.77952 14.0009 6.7732C15.19 6.7793 16.3879 6.93433 17.5061 7.24525C20.1784 5.4327 21.3517 5.80925 21.3517 5.80925C22.1156 7.73824 21.6352 9.16202 21.4909 9.51655C22.3886 10.4964 22.9302 11.7466 22.9302 13.2764C22.9302 18.6578 19.6569 19.8426 16.5384 20.1893C17.0406 20.6219 17.4886 21.4764 17.4886 22.7837C17.4886 24.0361 17.4808 25.1264 17.4756 25.8488C17.473 26.2068 17.4711 26.4745 17.4711 26.6269C17.4711 26.9828 17.6984 27.394 18.3298 27.3167Z" fill="white"/>
</svg>
