<svg width="29" height="28" viewBox="0 0 29 28" fill="none" xmlns="http://www.w3.org/2000/svg">
<rect x="0.166656" y="-9.15527e-05" width="28" height="28" rx="14" fill="#0077B5"/>
<path d="M21.9396 20.6062C21.0208 20.5843 20.1239 20.5843 19.2052 20.6062C19.0083 20.6062 18.9646 20.5624 18.9646 20.3655C18.9646 18.7468 18.9646 17.1062 18.9646 15.4874C18.9646 15.1155 18.9427 14.7437 18.8333 14.3937C18.5052 13.2562 17.1927 12.8405 16.2521 13.6062C15.7489 13.9999 15.5521 14.5468 15.5521 15.203C15.5521 16.7343 15.5521 18.2655 15.5521 19.7968C15.5521 19.9937 15.5302 20.1905 15.5521 20.4093C15.5739 20.5843 15.4864 20.628 15.3333 20.6062C14.3927 20.6062 13.474 20.6062 12.5333 20.6062C12.3583 20.6062 12.3146 20.5624 12.3146 20.3874C12.3365 19.0093 12.3365 17.6312 12.3365 16.2312C12.3365 14.5249 12.3365 12.8187 12.3146 11.1343C12.3146 10.9374 12.3583 10.8937 12.5333 10.8937C13.474 10.8937 14.3927 10.8937 15.3333 10.8937C15.5083 10.8937 15.5521 10.9374 15.5521 11.1124C15.5521 11.4624 15.5521 11.8124 15.5521 12.228C15.6177 12.1624 15.6396 12.1405 15.6614 12.1187C16.5146 10.8718 17.7177 10.5218 19.1396 10.7405C20.7802 11.003 21.8302 12.1405 22.0927 13.8905C22.1583 14.3062 22.1802 14.7218 22.1802 15.1374C22.1802 16.8874 22.1802 18.6155 22.1802 20.3655C22.1802 20.5405 22.1364 20.6062 21.9396 20.6062Z" fill="white"/>
<path d="M10.5646 15.7499C10.5646 17.2812 10.5646 18.8124 10.5646 20.3437C10.5646 20.5405 10.5208 20.6062 10.324 20.6062C9.40522 20.5843 8.48647 20.6062 7.56772 20.6062C7.39272 20.6062 7.34897 20.5624 7.34897 20.3874C7.34897 17.3031 7.34897 14.1968 7.34897 11.1124C7.34897 10.9593 7.39272 10.8937 7.56772 10.8937C8.50834 10.8937 9.44897 10.8937 10.3896 10.8937C10.5865 10.8937 10.6083 10.9593 10.6083 11.1343C10.5646 12.6656 10.5646 14.1968 10.5646 15.7499Z" fill="white"/>
<path d="M10.7177 8.35617C10.499 9.23117 9.60208 9.73429 8.57396 9.55929C7.48021 9.38429 6.86771 8.31242 7.26146 7.26242C7.52396 6.60617 8.15833 6.21242 8.96771 6.2343C10.1927 6.21242 11.0021 7.19679 10.7177 8.35617Z" fill="white"/>
</svg>
