<svg width="29" height="28" viewBox="0 0 29 28" fill="none" xmlns="http://www.w3.org/2000/svg">
<rect x="0.833344" y="-9.15527e-05" width="28" height="28" rx="14" fill="#F48024"/>
<path d="M19.4922 19.6182V15.2334H21.1365V21.2625H7.98206V15.2334H9.62636V19.6182" fill="white"/>
<path d="M10.9418 15.2883L18.3741 16.3626L18.4672 15.0581L11.1994 13.6605L10.9418 15.2883ZM11.9284 11.5612L18.5056 14.6306L19.1085 13.3151L12.5313 10.2458L11.9284 11.5612ZM13.7919 8.32741L19.3826 12.9863L20.3144 11.8901L14.7237 7.23121L13.7919 8.32741ZM17.3546 4.92919L16.2036 5.80614L20.5336 11.616L21.6846 10.7391L17.3546 4.92919ZM10.7226 18.5221H18.396V16.8778H10.7226V18.5221Z" fill="white"/>
</svg>
