<svg width="29" height="28" viewBox="0 0 29 28" fill="none" xmlns="http://www.w3.org/2000/svg">
<rect x="0.916656" y="-9.15527e-05" width="28" height="28" rx="14" fill="#1DA1F2"/>
<path d="M21.7781 10.9739C21.7781 11.127 21.7781 11.2801 21.7781 11.4114C21.7781 15.9395 18.3219 21.1676 12.0219 21.1676C10.075 21.1676 8.28125 20.5989 6.75 19.6364C7.0125 19.6582 7.29687 19.6801 7.55937 19.6801C9.15625 19.6801 10.6437 19.1332 11.825 18.2145C10.3156 18.1926 9.04687 17.1864 8.63125 15.8301C8.85 15.8739 9.04687 15.8957 9.2875 15.8957C9.59375 15.8957 9.9 15.852 10.1844 15.7645C8.60937 15.4582 7.42812 14.0801 7.42812 12.4176C7.42812 12.3957 7.42812 12.3957 7.42812 12.3739C7.8875 12.6364 8.4125 12.7895 8.98125 12.8114C8.0625 12.1989 7.45 11.1489 7.45 9.94574C7.45 9.31137 7.625 8.72074 7.90937 8.21762C9.59375 10.2957 12.1312 11.652 14.975 11.8051C14.9094 11.5645 14.8875 11.2801 14.8875 11.0176C14.8875 9.11449 16.4187 7.58324 18.3219 7.58324C19.3062 7.58324 20.2031 7.99887 20.8156 8.65512C21.6031 8.50199 22.325 8.21762 23.0031 7.82387C22.7406 8.63324 22.1937 9.28949 21.4937 9.72699C22.1937 9.63949 22.85 9.46449 23.4625 9.18012C23.025 9.88012 22.4562 10.4926 21.7781 10.9739Z" fill="white"/>
</svg>
